<mxfile host="drawio-plugin" agent="Mozilla/5.0 (X11; Linux x86_64) AppleWebKit/537.36 (KHTML, like Gecko) Chrome/122.0.0.0 Safari/537.36" modified="2025-01-02T17:44:32.476Z" version="22.1.22" etag="YuxBYm3laT8uBoR8ifKm" type="embed">
  <diagram name="Page-1" id="BjPpnATlAqmnPM9V4Ykc">
    <mxGraphModel dx="949" dy="694" grid="1" gridSize="10" guides="1" tooltips="1" connect="1" arrows="1" fold="1" page="1" pageScale="1" pageWidth="800" pageHeight="800" math="0" shadow="0">
      <root>
        <mxCell id="0" />
        <mxCell id="1" parent="0" />
        <mxCell id="WUuY3x_TO1SyaEHNx0RS-2" value="&lt;h1 style=&quot;margin-top: 0px;&quot;&gt;FuzzyMatchContainer&lt;/h1&gt;Used to collect, score and display possible options in the popup." style="text;html=1;whiteSpace=wrap;overflow=hidden;rounded=0;" parent="1" vertex="1">
          <mxGeometry x="250" y="20" width="300" height="90" as="geometry" />
        </mxCell>
        <mxCell id="WUuY3x_TO1SyaEHNx0RS-3" value="File Based" style="swimlane;fontStyle=0;childLayout=stackLayout;horizontal=1;startSize=30;horizontalStack=0;resizeParent=1;resizeParentMax=0;resizeLast=0;collapsible=1;marginBottom=0;whiteSpace=wrap;html=1;" parent="1" vertex="1">
          <mxGeometry x="40.5" y="160" width="239.5" height="150" as="geometry" />
        </mxCell>
        <mxCell id="WUuY3x_TO1SyaEHNx0RS-4" value="FuzzyScore" style="text;strokeColor=none;fillColor=none;align=left;verticalAlign=middle;spacingLeft=4;spacingRight=4;overflow=hidden;points=[[0,0.5],[1,0.5]];portConstraint=eastwest;rotatable=0;whiteSpace=wrap;html=1;" parent="WUuY3x_TO1SyaEHNx0RS-3" vertex="1">
          <mxGeometry y="30" width="239.5" height="30" as="geometry" />
        </mxCell>
        <mxCell id="WUuY3x_TO1SyaEHNx0RS-5" value="FilePath (action and display)" style="text;strokeColor=none;fillColor=none;align=left;verticalAlign=middle;spacingLeft=4;spacingRight=4;overflow=hidden;points=[[0,0.5],[1,0.5]];portConstraint=eastwest;rotatable=0;whiteSpace=wrap;html=1;" parent="WUuY3x_TO1SyaEHNx0RS-3" vertex="1">
          <mxGeometry y="60" width="239.5" height="30" as="geometry" />
        </mxCell>
        <mxCell id="WUuY3x_TO1SyaEHNx0RS-6" value="Filename (scoring and display)" style="text;strokeColor=none;fillColor=none;align=left;verticalAlign=middle;spacingLeft=4;spacingRight=4;overflow=hidden;points=[[0,0.5],[1,0.5]];portConstraint=eastwest;rotatable=0;whiteSpace=wrap;html=1;" parent="WUuY3x_TO1SyaEHNx0RS-3" vertex="1">
          <mxGeometry y="90" width="239.5" height="30" as="geometry" />
        </mxCell>
        <mxCell id="WUuY3x_TO1SyaEHNx0RS-11" value="Module (action and display)" style="text;strokeColor=none;fillColor=none;align=left;verticalAlign=middle;spacingLeft=4;spacingRight=4;overflow=hidden;points=[[0,0.5],[1,0.5]];portConstraint=eastwest;rotatable=0;whiteSpace=wrap;html=1;" parent="WUuY3x_TO1SyaEHNx0RS-3" vertex="1">
          <mxGeometry y="120" width="239.5" height="30" as="geometry" />
        </mxCell>
        <mxCell id="WUuY3x_TO1SyaEHNx0RS-7" value="Row Based" style="swimlane;fontStyle=0;childLayout=stackLayout;horizontal=1;startSize=30;horizontalStack=0;resizeParent=1;resizeParentMax=0;resizeLast=0;collapsible=1;marginBottom=0;whiteSpace=wrap;html=1;" parent="1" vertex="1">
          <mxGeometry x="522.5" y="160" width="237.5" height="150" as="geometry" />
        </mxCell>
        <mxCell id="WUuY3x_TO1SyaEHNx0RS-13" value="RowNumber (action and display)" style="text;strokeColor=none;fillColor=none;align=left;verticalAlign=middle;spacingLeft=4;spacingRight=4;overflow=hidden;points=[[0,0.5],[1,0.5]];portConstraint=eastwest;rotatable=0;whiteSpace=wrap;html=1;" parent="WUuY3x_TO1SyaEHNx0RS-7" vertex="1">
          <mxGeometry y="30" width="237.5" height="30" as="geometry" />
        </mxCell>
        <mxCell id="WUuY3x_TO1SyaEHNx0RS-9" value="FilePath (action and display)" style="text;strokeColor=none;fillColor=none;align=left;verticalAlign=middle;spacingLeft=4;spacingRight=4;overflow=hidden;points=[[0,0.5],[1,0.5]];portConstraint=eastwest;rotatable=0;whiteSpace=wrap;html=1;" parent="WUuY3x_TO1SyaEHNx0RS-7" vertex="1">
          <mxGeometry y="60" width="237.5" height="30" as="geometry" />
        </mxCell>
        <mxCell id="WUuY3x_TO1SyaEHNx0RS-10" value="Filename (display)" style="text;strokeColor=none;fillColor=none;align=left;verticalAlign=middle;spacingLeft=4;spacingRight=4;overflow=hidden;points=[[0,0.5],[1,0.5]];portConstraint=eastwest;rotatable=0;whiteSpace=wrap;html=1;" parent="WUuY3x_TO1SyaEHNx0RS-7" vertex="1">
          <mxGeometry y="90" width="237.5" height="30" as="geometry" />
        </mxCell>
        <mxCell id="WUuY3x_TO1SyaEHNx0RS-12" value="Module (action and display)" style="text;strokeColor=none;fillColor=none;align=left;verticalAlign=middle;spacingLeft=4;spacingRight=4;overflow=hidden;points=[[0,0.5],[1,0.5]];portConstraint=eastwest;rotatable=0;whiteSpace=wrap;html=1;" parent="WUuY3x_TO1SyaEHNx0RS-7" vertex="1">
          <mxGeometry y="120" width="237.5" height="30" as="geometry" />
        </mxCell>
        <mxCell id="WUuY3x_TO1SyaEHNx0RS-14" value="&lt;b&gt;Action&lt;/b&gt;&lt;br&gt;Go to file" style="rounded=0;whiteSpace=wrap;html=1;" parent="1" vertex="1">
          <mxGeometry x="29" y="340" width="120" height="60" as="geometry" />
        </mxCell>
        <mxCell id="WUuY3x_TO1SyaEHNx0RS-15" value="&lt;b&gt;Action&lt;/b&gt;&lt;br&gt;1. Go to file&lt;br&gt;2. Scroll to row" style="rounded=0;whiteSpace=wrap;html=1;" parent="1" vertex="1">
          <mxGeometry x="511.25" y="340" width="120" height="60" as="geometry" />
        </mxCell>
        <mxCell id="WUuY3x_TO1SyaEHNx0RS-16" value="Scoring&lt;br&gt;&lt;span style=&quot;font-weight: normal;&quot;&gt;Find the best file&lt;br&gt;&lt;/span&gt;" style="rounded=0;whiteSpace=wrap;html=1;fontStyle=1" parent="1" vertex="1">
          <mxGeometry x="100.75" y="420" width="120" height="60" as="geometry" />
        </mxCell>
        <mxCell id="WUuY3x_TO1SyaEHNx0RS-18" value="&lt;b&gt;Preview&lt;/b&gt;&lt;br&gt;Load file" style="rounded=0;whiteSpace=wrap;html=1;" parent="1" vertex="1">
          <mxGeometry x="171.5" y="340" width="120" height="60" as="geometry" />
        </mxCell>
        <mxCell id="WUuY3x_TO1SyaEHNx0RS-19" value="&lt;b&gt;Preview&lt;/b&gt;&lt;br&gt;1. Load file&lt;br&gt;2. Scroll to row" style="rounded=0;whiteSpace=wrap;html=1;" parent="1" vertex="1">
          <mxGeometry x="651.25" y="340" width="120" height="60" as="geometry" />
        </mxCell>
        <mxCell id="WUuY3x_TO1SyaEHNx0RS-20" value="Filtering&lt;br&gt;&lt;span style=&quot;font-weight: normal;&quot;&gt;Find all files&lt;br&gt;&lt;/span&gt;" style="rounded=0;whiteSpace=wrap;html=1;fontStyle=1" parent="1" vertex="1">
          <mxGeometry x="578.75" y="420" width="120" height="60" as="geometry" />
        </mxCell>
        <mxCell id="WUuY3x_TO1SyaEHNx0RS-21" value="Common" style="swimlane;fontStyle=0;childLayout=stackLayout;horizontal=1;startSize=30;horizontalStack=0;resizeParent=1;resizeParentMax=0;resizeLast=0;collapsible=1;marginBottom=0;whiteSpace=wrap;html=1;" parent="1" vertex="1">
          <mxGeometry x="330" y="160" width="140" height="120" as="geometry" />
        </mxCell>
        <mxCell id="WUuY3x_TO1SyaEHNx0RS-22" value="FilePath" style="text;strokeColor=none;fillColor=none;align=left;verticalAlign=middle;spacingLeft=4;spacingRight=4;overflow=hidden;points=[[0,0.5],[1,0.5]];portConstraint=eastwest;rotatable=0;whiteSpace=wrap;html=1;" parent="WUuY3x_TO1SyaEHNx0RS-21" vertex="1">
          <mxGeometry y="30" width="140" height="30" as="geometry" />
        </mxCell>
        <mxCell id="WUuY3x_TO1SyaEHNx0RS-23" value="Filename" style="text;strokeColor=none;fillColor=none;align=left;verticalAlign=middle;spacingLeft=4;spacingRight=4;overflow=hidden;points=[[0,0.5],[1,0.5]];portConstraint=eastwest;rotatable=0;whiteSpace=wrap;html=1;" parent="WUuY3x_TO1SyaEHNx0RS-21" vertex="1">
          <mxGeometry y="60" width="140" height="30" as="geometry" />
        </mxCell>
        <mxCell id="WUuY3x_TO1SyaEHNx0RS-24" value="Module" style="text;strokeColor=none;fillColor=none;align=left;verticalAlign=middle;spacingLeft=4;spacingRight=4;overflow=hidden;points=[[0,0.5],[1,0.5]];portConstraint=eastwest;rotatable=0;whiteSpace=wrap;html=1;" parent="WUuY3x_TO1SyaEHNx0RS-21" vertex="1">
          <mxGeometry y="90" width="140" height="30" as="geometry" />
        </mxCell>
      </root>
    </mxGraphModel>
  </diagram>
</mxfile>
